<svg width="246" height="122" viewBox="0 0 246 122" fill="none" xmlns="http://www.w3.org/2000/svg">
<g filter="url(#filter0_d_903_10)">
<path d="M144.805 35.842C145.802 31.3455 150.255 28.5085 154.752 29.5053L204.11 40.4478L200.5 56.7309L151.142 45.7885C146.645 44.7916 143.808 40.3384 144.805 35.842Z" fill="#0787D9"/>
</g>
<g filter="url(#filter1_d_903_10)">
<path d="M208.854 100.414C204.358 101.41 199.905 98.5733 198.908 94.0769L187.965 44.7186L204.248 41.1087L215.191 90.467C216.188 94.9635 213.351 99.4167 208.854 100.414Z" fill="#0787D9"/>
</g>
<g filter="url(#filter2_d_903_10)">
<path d="M160.962 68.4534L219.123 10.2923C223.703 5.71258 231.128 5.71258 235.708 10.2923C240.287 14.872 240.287 22.2971 235.708 26.8768L177.547 85.038L160.962 68.4534Z" fill="#0787D9"/>
</g>
<path d="M160.147 70.6218C160.763 68.386 163.574 67.6644 165.19 69.3272L176.199 80.6525C177.879 82.3798 176.94 85.2819 174.567 85.6984L159.722 88.3044C157.552 88.6852 155.726 86.6765 156.311 84.5531L160.147 70.6218Z" fill="#E5C298"/>
<path d="M156.681 83.7516C157.119 82.2754 158.99 81.8261 160.05 82.9429L161.951 84.946C163.01 86.0628 162.464 87.908 160.967 88.2674L158.282 88.9121C156.785 89.2715 155.46 87.8755 155.897 86.3993L156.681 83.7516Z" fill="#3F3E3E"/>
<path d="M227.789 12.6823C227.789 12.6823 228.28 11.9447 228.771 12.6823C229.263 13.4199 228.771 14.1574 228.771 14.1574L228.28 14.895C228.28 14.895 227.789 15.6326 227.297 14.895C226.806 14.1574 227.297 13.4199 227.297 13.4199L227.789 12.6823ZM228.771 24.4834C228.771 24.4834 229.263 25.221 228.771 25.9586C228.28 26.6961 227.789 25.9586 227.789 25.9586L227.297 25.221C227.297 25.221 226.806 24.4834 227.297 23.7459C227.789 23.0083 228.28 23.7459 228.28 23.7459L228.771 24.4834ZM221.4 13.4199C221.4 13.4199 221.892 14.1574 221.4 14.895C220.909 15.6326 220.418 14.895 220.418 14.895L219.926 14.1574C219.926 14.1574 219.435 13.4199 219.926 12.6823C220.418 11.9447 220.909 12.6823 220.909 12.6823L221.4 13.4199ZM224.798 12.0974C224.798 12.0974 224.798 13.1403 224.103 13.1403C223.408 13.1403 223.408 12.0974 223.408 12.0974L223.408 11.0545C223.408 11.0545 223.408 10.0116 224.103 10.0112C224.798 10.0116 224.798 11.0545 224.798 11.0545L224.798 12.0974ZM229.161 20.7325C229.161 20.7325 228.466 20.7325 228.466 19.6896C228.466 18.6467 229.161 18.6467 229.161 18.6467L229.856 18.6467C229.856 18.6467 230.551 18.6467 230.551 19.6896C230.551 20.7325 229.856 20.7325 229.856 20.7325L229.161 20.7325ZM218.842 20.7325C218.842 20.7325 218.147 20.7325 218.147 19.6896C218.147 18.6467 218.842 18.6467 218.842 18.6467L219.537 18.6467C219.537 18.6467 220.232 18.6467 220.232 19.6896C220.232 20.7325 219.537 20.7325 219.537 20.7325L218.842 20.7325Z" fill="#FFAC33"/>
<path d="M221.892 23.0078C223.249 25.0446 225.449 25.0446 226.806 23.0078C228.163 20.9711 228.163 17.6689 226.806 15.6321C225.449 13.5954 223.249 13.5954 221.892 15.6321C220.535 17.6689 220.535 20.9711 221.892 23.0078Z" fill="#FFAC33"/>
<path d="M225.964 25.5813C225.806 25.3446 225.63 25.1536 225.441 25.0068C225.771 24.0052 225.669 22.7775 225.126 21.9636C224.545 21.0903 223.645 20.9782 222.955 21.6088C222.925 21.2135 222.807 20.8451 222.62 20.5625C222.145 19.8497 221.364 19.8659 220.876 20.5994C220.757 20.7775 220.668 20.9818 220.606 21.1994C220.548 21.0365 220.475 20.8868 220.39 20.7547C219.862 19.9625 218.994 19.981 218.452 20.7956C217.909 21.6103 217.897 22.9128 218.424 23.705L222.82 30.3022C223.664 31.5693 225.052 31.5406 225.921 30.2365C226.789 28.9329 226.809 26.8489 225.964 25.5813Z" fill="#E1E8ED"/>
<path d="M209.151 36.9388C209.151 36.6627 208.927 36.4388 208.651 36.4388L204.151 36.4388C203.875 36.4388 203.651 36.6627 203.651 36.9388C203.651 37.2149 203.875 37.4388 204.151 37.4388L208.151 37.4388L208.151 41.4388C208.151 41.7149 208.375 41.9388 208.651 41.9388C208.927 41.9388 209.151 41.7149 209.151 41.4388L209.151 36.9388ZM174.361 71.9357L209.005 37.2923L208.298 36.5852L173.654 71.2286L174.361 71.9357Z" fill="white" fill-opacity="0.6"/>
<path d="M22.2344 88.25C21.2969 89.625 20.2344 90.9688 19.0469 92.2812C17.8594 93.5625 16.5938 94.7188 15.25 95.75C13.9375 96.75 12.5781 97.5625 11.1719 98.1875C9.79688 98.8125 8.45313 99.125 7.14063 99.125C6.45313 99.125 5.70313 98.9531 4.89063 98.6094C4.10938 98.2969 3.39063 97.7969 2.73438 97.1094C2.07813 96.4219 1.54688 95.5312 1.14063 94.4375C0.765625 93.3438 0.65625 92.0156 0.8125 90.4531C0.9375 89.1719 1.32813 87.8281 1.98438 86.4219C2.67188 84.9844 3.5 83.6719 4.46875 82.4844C5.46875 81.2969 6.57813 80.3125 7.79688 79.5312C9.04688 78.75 10.2969 78.3594 11.5469 78.3594C12.7344 78.3594 13.5938 78.6562 14.125 79.25C14.6563 79.8438 14.8906 80.5781 14.8281 81.4531C14.7344 82.4219 14.4531 83.3125 13.9844 84.125C13.5469 84.9375 13.0156 85.6719 12.3906 86.3281C11.7656 86.9844 11.0938 87.5781 10.375 88.1094C9.6875 88.6406 9.03125 89.125 8.40625 89.5625C7.71875 90.0312 7.0625 90.4844 6.4375 90.9219C5.8125 91.3281 5.26563 91.7031 4.79688 92.0469C4.82813 92.8281 4.96875 93.4844 5.21875 94.0156C5.46875 94.5469 5.78125 94.9844 6.15625 95.3281C6.53125 95.6406 6.95313 95.875 7.42188 96.0312C7.92188 96.1562 8.42188 96.2188 8.92188 96.2188C9.98438 96.2188 11.0938 95.8906 12.25 95.2344C13.4063 94.5469 14.5313 93.7344 15.625 92.7969C16.75 91.8281 17.7813 90.8281 18.7188 89.7969C19.6875 88.7656 20.4844 87.875 21.1094 87.125C21.3281 86.875 21.5469 86.7344 21.7656 86.7031C22.0156 86.6406 22.2031 86.6719 22.3281 86.7969C22.4844 86.8906 22.5625 87.0781 22.5625 87.3594C22.5625 87.6094 22.4531 87.9062 22.2344 88.25ZM10.2344 81.0312C9.85938 81.0312 9.40625 81.2188 8.875 81.5938C8.375 81.9688 7.875 82.5156 7.375 83.2344C6.875 83.9219 6.40625 84.7812 5.96875 85.8125C5.53125 86.8125 5.20313 87.9688 4.98438 89.2812C5.35938 89 5.76563 88.7188 6.20313 88.4375C6.64063 88.125 7.07813 87.7969 7.51563 87.4531C8.85938 86.4219 9.79688 85.5156 10.3281 84.7344C10.8594 83.9531 11.1563 83.2812 11.2188 82.7188C11.2813 82.125 11.2188 81.7031 11.0313 81.4531C10.8438 81.1719 10.5781 81.0312 10.2344 81.0312ZM36.0625 76.4844C36.0312 76.3906 36.125 76.1562 36.3438 75.7812C36.5625 75.375 36.7969 74.8906 37.0469 74.3281C37.3281 73.7344 37.5938 73.0781 37.8438 72.3594C38.125 71.6094 38.3125 70.8438 38.4062 70.0625C38.5312 69.2812 38.5312 68.5 38.4062 67.7188C38.2812 66.9375 37.9531 66.1875 37.4219 65.4688C37.1094 65.0938 36.6406 64.8906 36.0156 64.8594C35.4219 64.7969 34.7344 64.8906 33.9531 65.1406C33.2031 65.3594 32.4062 65.7188 31.5625 66.2188C30.75 66.6875 30 67.25 29.3125 67.9062C28.625 68.5312 28.0312 69.2344 27.5312 70.0156C27.0625 70.7969 26.7969 71.5938 26.7344 72.4062C26.6719 73.0625 26.6875 73.6719 26.7812 74.2344C26.9062 74.7969 27.0625 75.3125 27.25 75.7812C27.4375 76.25 27.6406 76.6875 27.8594 77.0938C28.0781 77.5 28.2812 77.8594 28.4688 78.1719C28.7188 78.6094 29.1094 79.0938 29.6406 79.625C30.1719 80.1562 30.75 80.7656 31.375 81.4531C32 82.1094 32.625 82.8594 33.25 83.7031C33.875 84.5469 34.4219 85.5 34.8906 86.5625C35.3594 87.625 35.6875 88.8125 35.875 90.125C36.0625 91.4375 36.0469 92.8906 35.8281 94.4844C35.4844 96.7969 34.9375 98.7188 34.1875 100.25C33.4375 101.812 32.6094 103.062 31.7031 104C30.8281 104.938 29.9375 105.609 29.0313 106.016C28.125 106.453 27.375 106.734 26.7813 106.859C26.3125 106.953 25.75 107.031 25.0938 107.094C24.4688 107.188 23.7969 107.172 23.0781 107.047C22.3906 106.953 21.6875 106.734 20.9688 106.391C20.25 106.078 19.6094 105.578 19.0469 104.891C18.3906 104.109 17.875 103.266 17.5 102.359C17.1563 101.578 16.9062 100.672 16.75 99.6406C16.5625 98.6406 16.6406 97.5938 16.9844 96.5C17.2344 96.2188 17.5 95.9688 17.7813 95.75C18.0625 95.5312 18.3438 95.3438 18.625 95.1875C18.9375 95 19.2656 94.8281 19.6094 94.6719C20.0156 94.5469 20.4219 94.4375 20.8281 94.3438C21.1719 94.2812 21.5313 94.25 21.9063 94.25C22.3125 94.2188 22.6875 94.2656 23.0313 94.3906C22.5625 94.9219 22.2344 95.4219 22.0469 95.8906C21.9219 96.1406 21.8281 96.3594 21.7656 96.5469C21.6406 97.1406 21.5938 97.8438 21.625 98.6562C21.6875 99.5 21.8594 100.297 22.1406 101.047C22.4531 101.828 22.8906 102.484 23.4531 103.016C24.0156 103.578 24.7656 103.875 25.7031 103.906C27.9844 103.969 29.9219 102.188 31.5156 98.5625C32.0469 97.4375 32.3125 96.2969 32.3125 95.1406C32.3438 93.9844 32.2031 92.875 31.8906 91.8125C31.6094 90.75 31.2188 89.7656 30.7188 88.8594C30.25 87.9219 29.7656 87.125 29.2656 86.4688C28.7656 85.8125 28.1563 85.1094 27.4375 84.3594C26.75 83.5781 26.0625 82.7344 25.375 81.8281C24.6875 80.9219 24.0625 79.9375 23.5 78.875C22.9688 77.8125 22.6094 76.6562 22.4219 75.4062C22.1719 73.6562 22.3281 72.0625 22.8906 70.625C23.4844 69.1562 24.2656 67.875 25.2344 66.7812C26.2344 65.6875 27.3125 64.7969 28.4688 64.1094C29.6562 63.4219 30.7031 62.9844 31.6094 62.7969C36.6406 61.7969 39.9375 62.6406 41.5 65.3281C42.1562 66.3594 42.5156 67.4531 42.5781 68.6094C42.6406 69.7656 42.5625 70.8438 42.3438 71.8438C42.1562 72.8125 41.9062 73.6406 41.5938 74.3281C41.3125 74.9844 41.125 75.3438 41.0312 75.4062C40.8438 75.5938 40.5469 75.7969 40.1406 76.0156C39.7344 76.2344 39.0781 76.4375 38.1719 76.625C37.9219 76.6875 37.6719 76.7188 37.4219 76.7188C37.2031 76.7188 36.9688 76.7031 36.7188 76.6719C36.4688 76.6406 36.25 76.5781 36.0625 76.4844ZM58.9375 86.1406C59.0625 85.9531 59.2188 85.8438 59.4062 85.8125C59.625 85.75 59.7969 85.7656 59.9219 85.8594C60.0469 85.9531 60.1094 86.1094 60.1094 86.3281C60.1406 86.5469 60.0625 86.8438 59.875 87.2188C59.25 88.4062 58.4219 89.6875 57.3906 91.0625C56.3906 92.4375 55.3281 93.7344 54.2031 94.9531C53.0781 96.1406 51.9844 97.125 50.9219 97.9062C49.8594 98.6875 48.9688 99.0781 48.25 99.0781C47.2188 99.0781 46.3594 98.875 45.6719 98.4688C44.9844 98.0625 44.4375 97.5625 44.0312 96.9688C43.6562 96.375 43.3906 95.7344 43.2344 95.0469C43.0781 94.3281 43.0312 93.6719 43.0938 93.0781C43.125 92.5781 43.2344 91.6875 43.4219 90.4062C43.6094 89.0938 43.8594 87.5938 44.1719 85.9062C44.4844 84.1875 44.8281 82.3594 45.2031 80.4219C45.6094 78.4531 46.0312 76.5625 46.4688 74.75C45.9375 74.8125 45.4062 74.875 44.875 74.9375C44.3438 75 43.8594 75.0312 43.4219 75.0312C42.4219 75.0312 41.4844 74.9219 40.6094 74.7031C39.7031 74.4531 39.0312 74.2188 38.5938 74C38.3438 73.875 38.2344 73.7031 38.2656 73.4844C38.2969 73.2344 38.3906 73 38.5469 72.7812C38.7031 72.5312 38.9062 72.3281 39.1562 72.1719C39.375 71.9844 39.5781 71.8906 39.7656 71.8906C40.3594 71.9531 41 72.0156 41.6875 72.0781C42.375 72.1094 43.125 72.1094 43.9375 72.0781C44.5312 72.0469 45.0938 72 45.625 71.9375C46.1875 71.875 46.7344 71.7969 47.2656 71.7031C47.6719 70.2031 48.0625 68.9062 48.4375 67.8125C48.8438 66.6875 49.2031 65.9062 49.5156 65.4688C49.6094 65.3125 49.8125 65.1875 50.125 65.0938C50.4688 64.9688 50.8281 64.8906 51.2031 64.8594C51.5781 64.7969 51.9375 64.7969 52.2812 64.8594C52.625 64.8906 52.875 65 53.0312 65.1875C53.1875 65.4375 53.25 66.0781 53.2188 67.1094C53.1875 68.1406 53.0156 69.4531 52.7031 71.0469C54.0156 71.0469 55.1719 71.125 56.1719 71.2812C57.2031 71.4062 58.0781 71.5625 58.7969 71.75C59.5156 71.9062 60.0938 72.0781 60.5312 72.2656C60.9688 72.4219 61.2969 72.5312 61.5156 72.5938C61.7344 72.6562 61.8438 72.8125 61.8438 73.0625C61.875 73.3125 61.8281 73.5781 61.7031 73.8594C61.6094 74.1094 61.4375 74.3281 61.1875 74.5156C60.9375 74.7031 60.6562 74.7656 60.3438 74.7031C60.0312 74.6719 59.6719 74.6094 59.2656 74.5156C58.8906 74.4219 58.4219 74.3438 57.8594 74.2812C57.3281 74.2188 56.6875 74.1562 55.9375 74.0938C55.1875 74.0312 54.3125 74 53.3125 74C53.125 74 52.9062 74.0156 52.6562 74.0469C52.4375 74.0469 52.2031 74.0469 51.9531 74.0469C51.8281 74.5469 51.7031 75.0469 51.5781 75.5469C51.4844 76.0156 51.3438 76.5156 51.1562 77.0469C50.75 78.2969 50.2812 79.6562 49.75 81.125C49.2812 82.4062 48.7188 83.875 48.0625 85.5312C47.4062 87.1875 46.6719 88.9531 45.8594 90.8281C45.6719 92.1719 45.6875 93.2031 45.9062 93.9219C46.1562 94.6094 46.4531 95.1094 46.7969 95.4219C47.2031 95.7656 47.7031 95.9531 48.2969 95.9844C48.7656 96.0469 49.3281 95.8906 49.9844 95.5156C50.6719 95.1094 51.375 94.5781 52.0938 93.9219C52.8125 93.2656 53.5312 92.5469 54.25 91.7656C55 90.9844 55.6875 90.2188 56.3125 89.4688C56.9375 88.7188 57.4844 88.0469 57.9531 87.4531C58.4219 86.8281 58.75 86.3906 58.9375 86.1406ZM61.9375 98.75C60.75 98.75 59.7812 98.5625 59.0312 98.1875C58.2812 97.8125 57.6875 97.3594 57.25 96.8281C56.8438 96.2656 56.5469 95.6719 56.3594 95.0469C56.2031 94.3906 56.125 93.7969 56.125 93.2656C56.125 92.3281 56.2031 91.3438 56.3594 90.3125C56.5156 89.25 56.7031 88.2812 56.9219 87.4062C57.1406 86.5 57.3281 85.7344 57.4844 85.1094C57.6719 84.4844 57.7969 84.0938 57.8594 83.9375C58.1406 83.0312 58.5 82.25 58.9375 81.5938C59.4062 80.9062 60.0469 80.4375 60.8594 80.1875C61.1719 80.125 61.5 80.0625 61.8438 80C62.125 79.9688 62.4062 79.9531 62.6875 79.9531C63 79.9531 63.2812 80 63.5312 80.0938C62.6875 82.25 62.0156 84.0469 61.5156 85.4844C61.0469 86.9219 60.6875 88.0938 60.4375 89C60.1562 90.0312 59.9844 90.8594 59.9219 91.4844C59.7656 92.8906 59.8906 93.9531 60.2969 94.6719C60.7031 95.3906 61.5312 95.75 62.7812 95.75C63.5938 95.75 64.375 95.4531 65.125 94.8594C65.875 94.2344 66.5625 93.4375 67.1875 92.4688C67.0938 91.9688 67.0469 91.4531 67.0469 90.9219C67.0469 89.9219 67.125 88.9531 67.2812 88.0156C67.4688 87.0469 67.6719 86.1562 67.8906 85.3438C68.1406 84.5 68.3906 83.75 68.6406 83.0938C68.9219 82.4375 69.1562 81.9219 69.3438 81.5469C69.6875 80.7969 70 80.3438 70.2812 80.1875C70.5625 80 71.0156 79.8906 71.6406 79.8594C71.8906 79.8281 72.0938 79.8281 72.25 79.8594C72.4375 79.8594 72.5938 79.875 72.7188 79.9062C73.0938 80 73.2812 80.1875 73.2812 80.4688C73.2812 80.9688 73.25 81.7188 73.1875 82.7188C73.125 83.7188 72.9375 84.75 72.625 85.8125C72.4062 86.6875 72.1875 87.4375 71.9688 88.0625C71.7812 88.6562 71.5938 89.1719 71.4062 89.6094C71.2188 90.0156 71.0312 90.3594 70.8438 90.6406C70.6562 90.8906 70.4844 91.125 70.3281 91.3438C70.3906 92.2812 70.4688 93.0312 70.5625 93.5938C70.6562 94.1562 70.7656 94.5938 70.8906 94.9062C71.0469 95.1875 71.2188 95.3906 71.4062 95.5156C71.625 95.6094 71.8594 95.6562 72.1094 95.6562C72.5469 95.6562 73.0625 95.4531 73.6562 95.0469C74.25 94.6094 74.8594 94.0781 75.4844 93.4531C76.1406 92.7969 76.7812 92.0938 77.4062 91.3438C78.0625 90.5625 78.6562 89.8281 79.1875 89.1406C79.7188 88.4531 80.1719 87.8594 80.5469 87.3594C80.9219 86.8281 81.1562 86.5 81.25 86.375C81.4688 86.0938 81.6719 85.9219 81.8594 85.8594C82.0781 85.7969 82.25 85.8281 82.375 85.9531C82.5 86.0469 82.5625 86.2188 82.5625 86.4688C82.5938 86.6875 82.5312 86.9375 82.375 87.2188C81.75 88.4062 80.9688 89.6719 80.0312 91.0156C79.125 92.3281 78.1406 93.5469 77.0781 94.6719C76.0469 95.7969 75 96.7344 73.9375 97.4844C72.875 98.2344 71.875 98.6094 70.9375 98.6094C70.0938 98.6094 69.4219 98.3281 68.9219 97.7656C68.4531 97.1719 68.0469 96.3281 67.7031 95.2344C66.9844 96.3594 66.1406 97.2344 65.1719 97.8594C64.2031 98.4531 63.125 98.75 61.9375 98.75ZM93.5312 89.0469C93.375 90.0156 93.2188 90.9375 93.0625 91.8125C92.9375 92.6875 92.8594 93.3906 92.8281 93.9219C92.7969 94.7031 92.9375 95.2656 93.25 95.6094C93.5625 95.9531 93.9062 96.125 94.2812 96.125C94.7188 96.125 95.25 95.9062 95.875 95.4688C96.5312 95.0312 97.2188 94.4844 97.9375 93.8281C98.6562 93.1719 99.375 92.4531 100.094 91.6719C100.812 90.8906 101.469 90.1562 102.062 89.4688C102.688 88.75 103.203 88.125 103.609 87.5938C104.047 87.0625 104.344 86.7188 104.5 86.5625C104.688 86.375 104.875 86.2656 105.062 86.2344C105.281 86.2031 105.453 86.2344 105.578 86.3281C105.703 86.4219 105.766 86.5938 105.766 86.8438C105.766 87.0938 105.641 87.4062 105.391 87.7812C105.016 88.375 104.531 89.0781 103.938 89.8906C103.344 90.6719 102.688 91.4844 101.969 92.3281C101.25 93.1719 100.484 94 99.6719 94.8125C98.8906 95.625 98.0938 96.3438 97.2812 96.9688C96.5 97.5938 95.7344 98.0938 94.9844 98.4688C94.2656 98.875 93.6094 99.0781 93.0156 99.0781C92.5781 99.0781 92.1562 98.9531 91.75 98.7031C91.375 98.4531 91.0312 98.125 90.7188 97.7188C90.4062 97.3125 90.1562 96.8594 89.9688 96.3594C89.8125 95.8594 89.75 95.3594 89.7812 94.8594C89.8125 94.6406 89.8594 94.2656 89.9219 93.7344C88.6094 95.2031 87.2812 96.375 85.9375 97.25C84.625 98.0938 83.3594 98.5156 82.1406 98.5156C81.7031 98.5156 81.2344 98.4062 80.7344 98.1875C80.2344 97.9688 79.7812 97.6094 79.375 97.1094C79 96.6094 78.6875 95.9531 78.4375 95.1406C78.1875 94.3281 78.0938 93.3438 78.1562 92.1875C78.25 90.375 78.6094 88.6562 79.2344 87.0312C79.8594 85.4062 80.6406 84 81.5781 82.8125C82.5469 81.5938 83.625 80.6406 84.8125 79.9531C86.0312 79.2344 87.25 78.875 88.4688 78.875C89 78.875 89.4844 79.0156 89.9219 79.2969C90.3594 79.5469 90.7344 79.8906 91.0469 80.3281C91.3594 80.7344 91.6094 81.1875 91.7969 81.6875C92.0156 82.1875 92.1719 82.6562 92.2656 83.0938C92.4844 82.1875 92.6875 81.2969 92.875 80.4219C93.0625 79.5469 93.25 78.7188 93.4375 77.9375C93.75 76.7812 94.0781 75.5312 94.4219 74.1875C94.7344 73.0312 95.0938 71.7031 95.5 70.2031C95.9062 68.7031 96.3594 67.125 96.8594 65.4688C97.1719 65.2188 97.4688 65.0312 97.75 64.9062C98.0312 64.7812 98.2969 64.6875 98.5469 64.625C98.8281 64.5312 99.0938 64.4844 99.3438 64.4844C99.6562 64.4844 99.9375 64.5312 100.188 64.625C100.438 64.6875 100.641 64.8906 100.797 65.2344C100.984 65.5469 101.109 66.0312 101.172 66.6875C101.234 67.3438 101.234 68.2344 101.172 69.3594C101.109 70.7344 100.859 72.2344 100.422 73.8594C100.016 75.4844 99.4688 77.1719 98.7812 78.9219C98.0938 80.6406 97.2969 82.375 96.3906 84.125C95.5156 85.8438 94.5625 87.4844 93.5312 89.0469ZM90.7656 89.6562C90.8906 89.0625 91 88.4688 91.0938 87.875C91.2188 87.2812 91.3594 86.6719 91.5156 86.0469C91.4531 86.0781 91.3906 86.1094 91.3281 86.1406C91.2969 86.1719 91.25 86.2031 91.1875 86.2344C90.8438 86.3906 90.6094 86.3906 90.4844 86.2344C90.3594 86.0469 90.2969 85.7656 90.2969 85.3906C90.2969 85.2031 90.2812 84.875 90.25 84.4062C90.2188 83.9062 90.125 83.4062 89.9688 82.9062C89.8438 82.375 89.6406 81.9219 89.3594 81.5469C89.0781 81.1406 88.6875 80.9375 88.1875 80.9375C87.4688 80.9375 86.7344 81.3125 85.9844 82.0625C85.2344 82.7812 84.5312 83.6719 83.875 84.7344C83.2188 85.7656 82.6719 86.875 82.2344 88.0625C81.7969 89.25 81.5469 90.3125 81.4844 91.25C81.4219 92.75 81.6094 93.8281 82.0469 94.4844C82.4844 95.1406 83.0781 95.4688 83.8281 95.4688C84.3906 95.4688 85 95.25 85.6562 94.8125C86.3438 94.375 87 93.8438 87.625 93.2188C88.2812 92.5938 88.875 91.9531 89.4062 91.2969C89.9688 90.6406 90.4219 90.0938 90.7656 89.6562ZM112.141 70.3906C112.047 70.7344 111.859 71.0781 111.578 71.4219C111.328 71.7344 111.031 72 110.688 72.2188C110.375 72.4062 110.047 72.5312 109.703 72.5938C109.359 72.6562 109.078 72.5938 108.859 72.4062C108.203 71.9062 107.859 71.375 107.828 70.8125C107.797 70.2188 107.938 69.6719 108.25 69.1719C108.562 68.6406 108.953 68.2031 109.422 67.8594C109.891 67.4844 110.297 67.2656 110.641 67.2031C110.984 67.1406 111.266 67.2188 111.484 67.4375C111.734 67.625 111.922 67.8906 112.047 68.2344C112.172 68.5469 112.234 68.9062 112.234 69.3125C112.266 69.7188 112.234 70.0781 112.141 70.3906ZM105.672 80.375C105.828 80.1875 106.125 80.0312 106.562 79.9062C107 79.7812 107.453 79.6875 107.922 79.625C108.391 79.5312 108.812 79.4844 109.188 79.4844C109.594 79.4531 109.828 79.4531 109.891 79.4844C109.922 79.5156 109.844 79.8438 109.656 80.4688C109.469 81.0938 109.234 81.8281 108.953 82.6719C108.672 83.5156 108.375 84.3906 108.062 85.2969C107.75 86.1719 107.516 86.8906 107.359 87.4531C107.203 88.0156 107.016 88.6562 106.797 89.375C106.578 90.0625 106.375 90.75 106.188 91.4375C106.031 92.0938 105.922 92.7188 105.859 93.3125C105.797 93.9062 105.844 94.3594 106 94.6719C106.156 95.0469 106.328 95.3125 106.516 95.4688C106.703 95.5938 106.906 95.6562 107.125 95.6562C107.75 95.6562 108.531 95.3125 109.469 94.625C110.438 93.9375 111.406 93.125 112.375 92.1875C113.375 91.2188 114.297 90.25 115.141 89.2812C115.984 88.2812 116.609 87.4844 117.016 86.8906C117.266 86.5781 117.516 86.375 117.766 86.2812C118.047 86.1875 118.266 86.2031 118.422 86.3281C118.609 86.4531 118.703 86.6562 118.703 86.9375C118.734 87.2188 118.641 87.5469 118.422 87.9219C117.922 88.7969 117.188 89.8438 116.219 91.0625C115.25 92.25 114.219 93.4062 113.125 94.5312C112.031 95.625 110.953 96.5625 109.891 97.3438C108.859 98.125 108.016 98.5312 107.359 98.5625C106.828 98.5938 106.297 98.5 105.766 98.2812C105.266 98.0938 104.797 97.8281 104.359 97.4844C103.953 97.1094 103.609 96.6875 103.328 96.2188C103.047 95.7188 102.891 95.2031 102.859 94.6719C102.766 93.8906 102.766 92.8281 102.859 91.4844C102.953 90.1094 103.125 88.7188 103.375 87.3125C103.625 85.875 103.938 84.5156 104.312 83.2344C104.719 81.9531 105.172 81 105.672 80.375ZM136.234 88.25C135.297 89.625 134.234 90.9688 133.047 92.2812C131.859 93.5625 130.594 94.7188 129.25 95.75C127.938 96.75 126.578 97.5625 125.172 98.1875C123.797 98.8125 122.453 99.125 121.141 99.125C120.453 99.125 119.703 98.9531 118.891 98.6094C118.109 98.2969 117.391 97.7969 116.734 97.1094C116.078 96.4219 115.547 95.5312 115.141 94.4375C114.766 93.3438 114.656 92.0156 114.812 90.4531C114.938 89.1719 115.328 87.8281 115.984 86.4219C116.672 84.9844 117.5 83.6719 118.469 82.4844C119.469 81.2969 120.578 80.3125 121.797 79.5312C123.047 78.75 124.297 78.3594 125.547 78.3594C126.734 78.3594 127.594 78.6562 128.125 79.25C128.656 79.8438 128.891 80.5781 128.828 81.4531C128.734 82.4219 128.453 83.3125 127.984 84.125C127.547 84.9375 127.016 85.6719 126.391 86.3281C125.766 86.9844 125.094 87.5781 124.375 88.1094C123.688 88.6406 123.031 89.125 122.406 89.5625C121.719 90.0312 121.062 90.4844 120.438 90.9219C119.812 91.3281 119.266 91.7031 118.797 92.0469C118.828 92.8281 118.969 93.4844 119.219 94.0156C119.469 94.5469 119.781 94.9844 120.156 95.3281C120.531 95.6406 120.953 95.875 121.422 96.0312C121.922 96.1562 122.422 96.2188 122.922 96.2188C123.984 96.2188 125.094 95.8906 126.25 95.2344C127.406 94.5469 128.531 93.7344 129.625 92.7969C130.75 91.8281 131.781 90.8281 132.719 89.7969C133.688 88.7656 134.484 87.875 135.109 87.125C135.328 86.875 135.547 86.7344 135.766 86.7031C136.016 86.6406 136.203 86.6719 136.328 86.7969C136.484 86.8906 136.562 87.0781 136.562 87.3594C136.562 87.6094 136.453 87.9062 136.234 88.25ZM124.234 81.0312C123.859 81.0312 123.406 81.2188 122.875 81.5938C122.375 81.9688 121.875 82.5156 121.375 83.2344C120.875 83.9219 120.406 84.7812 119.969 85.8125C119.531 86.8125 119.203 87.9688 118.984 89.2812C119.359 89 119.766 88.7188 120.203 88.4375C120.641 88.125 121.078 87.7969 121.516 87.4531C122.859 86.4219 123.797 85.5156 124.328 84.7344C124.859 83.9531 125.156 83.2812 125.219 82.7188C125.281 82.125 125.219 81.7031 125.031 81.4531C124.844 81.1719 124.578 81.0312 124.234 81.0312ZM131.078 97.7656C130.859 98.1094 130.625 98.3281 130.375 98.4219C130.094 98.5469 129.859 98.5625 129.672 98.4688C129.453 98.4062 129.312 98.25 129.25 98C129.188 97.75 129.25 97.4375 129.438 97.0625C129.531 96.875 129.75 96.4531 130.094 95.7969C130.406 95.1406 130.797 94.3594 131.266 93.4531C131.703 92.5156 132.188 91.5156 132.719 90.4531C133.25 89.3594 133.75 88.3281 134.219 87.3594C134.719 86.3906 135.172 85.5312 135.578 84.7812C135.984 84 136.281 83.4375 136.469 83.0938C136.125 82.7812 135.891 82.5625 135.766 82.4375C135.641 82.2812 135.547 81.9688 135.484 81.5C135.422 81.0938 135.516 80.5625 135.766 79.9062C136.016 79.25 136.344 78.625 136.75 78.0312C137.156 77.4062 137.609 76.875 138.109 76.4375C138.609 76 139.094 75.7812 139.562 75.7812C140.438 75.7812 141.047 76.0625 141.391 76.625C141.766 77.1875 141.984 77.7656 142.047 78.3594C142.109 78.7656 142.078 79.2812 141.953 79.9062C141.828 80.5312 141.594 81.0938 141.25 81.5938C141.344 81.6562 141.469 81.7344 141.625 81.8281C141.781 81.8906 142.031 81.9219 142.375 81.9219C142.875 81.9219 143.219 81.8906 143.406 81.8281C143.625 81.7656 143.953 81.7344 144.391 81.7344C144.922 81.7344 145.359 81.875 145.703 82.1562C146.047 82.4062 146.328 82.7344 146.547 83.1406C146.766 83.5156 146.922 83.9375 147.016 84.4062C147.141 84.8438 147.219 85.25 147.25 85.625C147.344 86.4062 147.141 87.2188 146.641 88.0625C146.141 88.9062 145.531 89.8281 144.812 90.8281C144.375 91.4531 143.938 92.1562 143.5 92.9375C143.062 93.7188 142.875 94.4219 142.938 95.0469C143 95.4531 143.109 95.7812 143.266 96.0312C143.422 96.2812 143.859 96.4062 144.578 96.4062C145.109 96.4062 145.688 96.2188 146.312 95.8438C146.969 95.4375 147.625 94.9375 148.281 94.3438C148.969 93.7188 149.641 93.0469 150.297 92.3281C150.953 91.5781 151.562 90.8594 152.125 90.1719C152.688 89.4531 153.156 88.8125 153.531 88.25C153.938 87.6875 154.234 87.2812 154.422 87.0312C154.578 86.7812 154.781 86.6094 155.031 86.5156C155.281 86.4219 155.5 86.4219 155.688 86.5156C155.875 86.6094 155.984 86.7969 156.016 87.0781C156.078 87.3594 155.969 87.7344 155.688 88.2031C155.5 88.5156 155.172 89.0156 154.703 89.7031C154.266 90.3906 153.719 91.1562 153.062 92C152.438 92.8438 151.734 93.7188 150.953 94.625C150.172 95.5 149.344 96.3125 148.469 97.0625C147.625 97.7812 146.766 98.375 145.891 98.8438C145.047 99.3125 144.234 99.5469 143.453 99.5469C142.641 99.5469 141.969 99.3906 141.438 99.0781C140.906 98.7656 140.469 98.3906 140.125 97.9531C139.812 97.4844 139.578 96.9844 139.422 96.4531C139.297 95.8906 139.25 95.375 139.281 94.9062C139.312 94.5312 139.406 94.1406 139.562 93.7344C139.75 93.2969 139.953 92.8594 140.172 92.4219C140.422 91.9531 140.672 91.5 140.922 91.0625C141.203 90.5938 141.453 90.1406 141.672 89.7031C142.203 88.7969 142.625 88.0312 142.938 87.4062C143.281 86.75 143.453 86.2031 143.453 85.7656C143.453 85.4844 143.391 85.2344 143.266 85.0156C143.141 84.7969 142.938 84.6875 142.656 84.6875C142.469 84.6875 142.328 84.7031 142.234 84.7344C142.172 84.7344 142.094 84.7344 142 84.7344C141.938 84.7344 141.828 84.75 141.672 84.7812C141.547 84.7812 141.344 84.7812 141.062 84.7812C140.656 84.7812 140.312 84.7188 140.031 84.5938C139.75 84.4688 139.484 84.375 139.234 84.3125C139.109 84.5312 138.828 85 138.391 85.7188C137.953 86.4375 137.438 87.2812 136.844 88.25C136.281 89.2188 135.672 90.2344 135.016 91.2969C134.391 92.3594 133.797 93.3594 133.234 94.2969C132.672 95.2031 132.203 95.9844 131.828 96.6406C131.422 97.2656 131.172 97.6406 131.078 97.7656Z" fill="white" fill-opacity="0.68"/>
<defs>
<filter id="filter0_d_903_10" x="140.606" y="29.3059" width="67.5043" height="35.425" filterUnits="userSpaceOnUse" color-interpolation-filters="sRGB">
<feFlood flood-opacity="0" result="BackgroundImageFix"/>
<feColorMatrix in="SourceAlpha" type="matrix" values="0 0 0 0 0 0 0 0 0 0 0 0 0 0 0 0 0 0 127 0" result="hardAlpha"/>
<feOffset dy="4"/>
<feGaussianBlur stdDeviation="2"/>
<feComposite in2="hardAlpha" operator="out"/>
<feColorMatrix type="matrix" values="0 0 0 0 0 0 0 0 0 0 0 0 0 0 0 0 0 0 0.25 0"/>
<feBlend mode="normal" in2="BackgroundImageFix" result="effect1_dropShadow_903_10"/>
<feBlend mode="normal" in="SourceGraphic" in2="effect1_dropShadow_903_10" result="shape"/>
</filter>
<filter id="filter1_d_903_10" x="183.965" y="41.1087" width="35.4251" height="67.5042" filterUnits="userSpaceOnUse" color-interpolation-filters="sRGB">
<feFlood flood-opacity="0" result="BackgroundImageFix"/>
<feColorMatrix in="SourceAlpha" type="matrix" values="0 0 0 0 0 0 0 0 0 0 0 0 0 0 0 0 0 0 127 0" result="hardAlpha"/>
<feOffset dy="4"/>
<feGaussianBlur stdDeviation="2"/>
<feComposite in2="hardAlpha" operator="out"/>
<feColorMatrix type="matrix" values="0 0 0 0 0 0 0 0 0 0 0 0 0 0 0 0 0 0 0.25 0"/>
<feBlend mode="normal" in2="BackgroundImageFix" result="effect1_dropShadow_903_10"/>
<feBlend mode="normal" in="SourceGraphic" in2="effect1_dropShadow_903_10" result="shape"/>
</filter>
<filter id="filter2_d_903_10" x="158.962" y="0.857513" width="86.1805" height="86.1805" filterUnits="userSpaceOnUse" color-interpolation-filters="sRGB">
<feFlood flood-opacity="0" result="BackgroundImageFix"/>
<feColorMatrix in="SourceAlpha" type="matrix" values="0 0 0 0 0 0 0 0 0 0 0 0 0 0 0 0 0 0 127 0" result="hardAlpha"/>
<feOffset dx="2" dy="-2"/>
<feGaussianBlur stdDeviation="2"/>
<feComposite in2="hardAlpha" operator="out"/>
<feColorMatrix type="matrix" values="0 0 0 0 0 0 0 0 0 0 0 0 0 0 0 0 0 0 0.25 0"/>
<feBlend mode="normal" in2="BackgroundImageFix" result="effect1_dropShadow_903_10"/>
<feBlend mode="normal" in="SourceGraphic" in2="effect1_dropShadow_903_10" result="shape"/>
</filter>
</defs>
</svg>
